<?xml version="1.0" encoding="UTF-8"?><svg id="Vrstva_1" xmlns="http://www.w3.org/2000/svg" width="388.05" height="63.58" viewBox="0 0 388.05 63.58"><defs><style>.cls-1{fill:#fff;}</style></defs><rect x="16.85" width="28.89" height="28.89"/><rect y="33.7" width="28.89" height="28.89"/><rect x="33.71" y="33.7" width="28.89" height="28.89"/><path class="cls-1" d="m89.28,15.64h21.02c5.06,0,8.93,1.25,11.36,3.42,2.56,2.3,3.74,5.12,3.74,8.8,0,4.79-2.96,7.88-7.36,9.39v.2c5.19,1.51,8.73,5.84,8.73,11.62,0,4.4-1.38,7.42-4.14,9.79-2.69,2.36-6.83,3.74-11.82,3.74h-21.54V15.64Zm19.83,18.91c4.14,0,6.96-1.97,6.96-5.65,0-3.48-2.56-5.52-6.76-5.52h-10.51v11.16h10.31Zm-10.31,20.16h10.97c4.6,0,7.36-2.56,7.36-6.37,0-4.47-3.28-6.76-7.62-6.76h-10.71v13.13Z"/><path class="cls-1" d="m130,45.72c0-9.98,6.76-17.73,16.62-17.73,10.84,0,16.62,8.28,16.62,20.29h-24.43c.66,5.19,3.55,8.41,8.6,8.41,3.48,0,5.52-1.58,6.5-4.14h8.8c-1.25,5.98-6.57,11.03-15.24,11.03-11.16,0-17.47-7.82-17.47-17.86Zm8.93-3.61h14.97c-.26-4.27-3.09-7.22-7.16-7.22-4.73,0-7.03,2.82-7.81,7.22Z"/><path class="cls-1" d="m164.61,55.76l17.34-19.64v-.2h-15.37v-7.03h25.74v7.16l-16.94,19.18v.2h17.8v7.16h-28.57v-6.83Z"/><path class="cls-1" d="m205.2,51.69h8.27c.59,3.88,3.35,5.58,7.36,5.58s6.17-1.51,6.17-3.88c0-3.22-4.27-3.55-8.87-4.47-6.04-1.18-11.95-2.82-11.95-10.18s6.04-10.77,13.73-10.77c8.87,0,13.79,4.4,14.45,11.17h-8.08c-.39-3.61-2.69-4.93-6.5-4.93-3.48,0-5.78,1.31-5.78,3.74,0,2.89,4.47,3.15,9.26,4.14,5.65,1.18,11.89,2.76,11.89,10.64,0,6.76-5.78,10.84-14.19,10.84-9.79,0-15.24-4.73-15.76-11.89Z"/><path class="cls-1" d="m251.24,47.23l-3.88,4.01v11.36h-8.87V15.64h8.87v26.01l11.95-12.74h10.7l-12.41,12.81,13.92,20.88h-10.84l-9.46-15.37Z"/><path class="cls-1" d="m273.84,15.64h8.93v46.96h-8.93V15.64Z"/><path class="cls-1" d="m308.19,58.85h-.13c-1.71,2.56-4.14,4.53-9.92,4.53-6.9,0-11.76-3.61-11.76-10.31,0-7.42,6.04-9.79,13.53-10.84,5.58-.79,8.14-1.25,8.14-3.81,0-2.43-1.9-4.01-5.65-4.01-4.2,0-6.24,1.51-6.5,4.73h-7.95c.26-5.91,4.66-11.1,14.51-11.1s14.19,4.53,14.19,12.41v17.14c0,2.56.39,4.07,1.18,4.66v.33h-8.6c-.53-.66-.85-2.23-1.05-3.74Zm.07-8.14v-5.06c-1.58.92-4.01,1.44-6.24,1.97-4.66,1.05-6.96,2.1-6.96,5.25s2.1,4.27,5.25,4.27c5.12,0,7.95-3.15,7.95-6.44Z"/><path class="cls-1" d="m320.01,45.78c0-10.51,5.98-17.8,14.38-17.8,4.73,0,7.68,2.17,9.52,4.99h.2V15.64h8.93v46.96h-8.6v-4.4h-.13c-1.97,3.22-5.32,5.39-10.05,5.39-8.47,0-14.25-6.9-14.25-17.8Zm24.3.2c0-6.44-2.1-10.77-7.81-10.77-4.93,0-7.42,4.33-7.42,10.57s2.56,10.31,7.16,10.31c5.32,0,8.08-3.94,8.08-10.11Z"/><path class="cls-1" d="m379.45,62.59v-3.94h-.2c-2.3,3.09-4.93,4.86-9.65,4.86-7.49,0-11.69-4.79-11.69-12.15v-22.46h8.87v20.95c0,3.94,1.77,6.11,5.58,6.11,4.2,0,6.76-3.15,6.76-7.62v-19.44h8.93v33.69h-8.6Z"/></svg>